<?xml version="1.0" encoding="UTF-8" standalone="no"?>
<!-- Created with Inkscape (http://www.inkscape.org/) -->

<svg
   version="1.1"
   id="svg2"
   width="66.559998"
   height="21.440001"
   viewBox="0 0 66.559998 21.440001"
   xmlns="http://www.w3.org/2000/svg"
   xmlns:svg="http://www.w3.org/2000/svg">
  <defs
     id="defs6" />
  <g
     id="g8">
    <path
       style="fill:#000000;stroke-width:0.32"
       d="M 4.3880242,17.081359 C 4.2626108,16.955945 4.1599999,14.367038 4.1599999,11.328231 c 0,-5.2872141 0.028217,-5.5340582 0.6553561,-5.7331047 1.1583497,-0.3676457 1.5846438,0.3701277 1.5846438,2.7424923 0,2.5103554 0.2084637,2.6961874 2.5616335,2.2835294 L 10.4,10.368913 10.314106,8.2388701 c -0.07577,-1.8788567 -0.0073,-2.1720977 0.580455,-2.4866625 0.498825,-0.2669632 0.783732,-0.2592 1.133256,0.03088 0.382498,0.3174458 0.451113,1.3772244 0.379545,5.8622064 -0.08541,5.352367 -0.102968,5.47693 -0.785711,5.574127 -0.714955,0.101783 -1.356458,-0.660438 -1.306802,-1.552718 0.01428,-0.256685 0.0033,-1.150701 -0.02444,-1.986701 L 10.24,12.160001 H 8.3334602 6.4269211 l -0.093461,2.48 c -0.090004,2.388284 -0.1234893,2.483502 -0.9054361,2.574691 -0.4465866,0.05208 -0.9145866,-0.0079 -1.0399998,-0.133333 z M 26.283998,16.913652 c -0.597328,-0.220966 -0.656398,-0.367298 -0.366745,-0.90852 0.244193,-0.456279 0.66983,-0.645131 1.454005,-0.645131 0.609808,0 1.108741,-0.05628 1.108741,-0.125055 0,-0.06878 -0.284837,-0.75278 -0.632972,-1.52 -0.836269,-1.842972 -0.809113,-3.651651 0.07824,-5.2107869 0.93338,-1.6400129 2.233859,-2.3716398 4.267414,-2.4007707 3.952468,-0.056619 6.415213,3.9505366 4.607322,7.4966126 -0.838634,1.64493 -0.826563,1.696 0.457833,1.936954 1.066487,0.200075 1.650183,0.859943 1.28432,1.451923 -0.200435,0.324312 -3.963545,0.400972 -4.75598,0.09689 -0.767107,-0.294366 -0.611757,-1.136109 0.484896,-2.627324 1.716115,-2.333558 1.663043,-5.0602136 -0.119658,-6.1471695 -2.133539,-1.3008721 -4.397751,-0.4245015 -5.03703,1.9495975 -0.283376,1.052377 -0.239362,1.495903 0.260281,2.622843 0.33073,0.745959 0.84073,1.553922 1.133333,1.795472 0.619834,0.511687 0.72039,2.26871 0.132005,2.306527 -2.611598,0.167853 -3.758759,0.148876 -4.356001,-0.07206 z m 18.207345,-0.04216 c -0.433764,-0.219493 -1.19834,-1.061719 -1.699056,-1.871614 -1.874746,-3.032326 -0.981328,-7.9400788 1.699766,-9.3372424 1.32559,-0.6907866 3.607514,-0.5210883 4.558608,0.3390068 0.764698,0.691529 1.679008,2.4636458 1.972253,3.8226197 0.947548,4.3911559 -3.116045,8.7755629 -6.531571,7.0472299 z m 3.264233,-2.462251 c 1.472179,-1.158018 1.688253,-4.9906206 0.363863,-6.4540555 -0.796144,-0.8797303 -2.404784,-0.7687888 -3.343661,0.2305994 -0.66864,0.711737 -0.775779,1.1353994 -0.775779,3.0677071 0,2.059705 0.07298,2.304697 0.897843,3.01422 1.089654,0.937281 1.801293,0.972524 2.857734,0.141529 z m 7.044422,2.658834 C 54.327957,16.877598 54.224574,6.5323894 54.68741,5.8017712 c 0.206704,-0.3262948 0.868915,-0.4048177 2.592588,-0.3074215 2.128983,0.1202982 2.389095,0.2137613 3.237488,1.1632778 2.069255,2.3158977 0.620288,5.2424485 -2.757488,5.5694385 -0.95543,0.09249 -0.960457,0.103551 -1.056243,2.324088 -0.108371,2.512307 -0.53087,3.070888 -1.903757,2.516917 z m 3.963728,-7.009897 C 59.555195,8.8502379 59.047739,7.0370093 57.80299,6.6253008 57.115278,6.3978365 56.815365,6.4317677 56.603579,6.7609971 56.351966,7.1521354 56.48028,9.4216536 56.813841,10.48 c 0.217335,0.689569 1.387546,0.436412 1.949885,-0.421826 z M 15.953483,16.74126 c -0.02558,-0.14369 -0.07461,-2.613947 -0.10894,-5.489458 -0.07505,-6.2854384 -0.06223,-6.3126154 2.835343,-6.0097594 2.3011,0.2405124 3.296515,0.831857 3.922602,2.3302933 0.907649,2.1723098 -0.464411,4.2676691 -2.794508,4.2676691 -0.643289,0 -1.323586,0.185521 -1.511771,0.412271 -0.188185,0.226749 -0.385817,1.342749 -0.439182,2.48 -0.09339,1.990162 -0.130039,2.071527 -0.977028,2.168984 -0.483999,0.05569 -0.900932,-0.01631 -0.926516,-0.16 z m 4.023659,-6.364113 c 0.285469,-0.285469 0.502857,-1.0431387 0.502857,-1.7526229 0,-0.9789364 -0.172827,-1.3630071 -0.797529,-1.7723271 -1.307929,-0.8569882 -1.762471,-0.4122567 -1.762471,1.7244311 0,1.0321904 0.096,1.9727099 0.213334,2.0900429 0.377069,0.37707 1.326263,0.228023 1.843809,-0.289524 z"
       id="path30" />
  </g>
</svg>
